<svg><defs><g id="filter-outline"><path d="M15,19.88C15.04,20.18 14.94,20.5 14.71,20.71C14.32,21.1 13.69,21.1 13.3,20.71L9.29,16.7C9.06,16.47 8.96,16.16 9,15.87V10.75L4.21,4.62C3.87,4.19 3.95,3.56 4.38,3.22C4.57,3.08 4.78,3 5,3V3H19V3C19.22,3 19.43,3.08 19.62,3.22C20.05,3.56 20.13,4.19 19.79,4.62L15,10.75V19.88M7.04,5L11,10.06V15.58L13,17.58V10.05L16.96,5H7.04Z" /></g><g id="close"><path d="M19,6.41L17.59,5L12,10.59L6.41,5L5,6.41L10.59,12L5,17.59L6.41,19L12,13.41L17.59,19L19,17.59L13.41,12L19,6.41Z" /></g><g id="chevron-double-right"><path d="M5.59,7.41L7,6L13,12L7,18L5.59,16.59L10.17,12L5.59,7.41M11.59,7.41L13,6L19,12L13,18L11.59,16.59L16.17,12L11.59,7.41Z" /></g><g id="arrow-collapse-up"><path d="M4.08,11.92L12,4L19.92,11.92L18.5,13.33L13,7.83V22H11V7.83L5.5,13.33L4.08,11.92M12,4H22V2H2V4H12Z" /></g><g id="chevron-double-left"><path d="M18.41,7.41L17,6L11,12L17,18L18.41,16.59L13.83,12L18.41,7.41M12.41,7.41L11,6L5,12L11,18L12.41,16.59L7.83,12L12.41,7.41Z" /></g></defs></svg>